<?xml version="1.0" encoding="utf-8"?>
<!-- Generator: Adobe Illustrator 23.0.1, SVG Export Plug-In . SVG Version: 6.00 Build 0)  -->
<svg version="1.1" id="Layer_1" xmlns="http://www.w3.org/2000/svg" xmlns:xlink="http://www.w3.org/1999/xlink" x="0px" y="0px"
	 viewBox="0 0 114 33" style="enable-background:new 0 0 114 33;" xml:space="preserve">
<style type="text/css">
	.st0{fill:#FFFFFF;}
	.st1{opacity:0.5;fill:#FFFFFF;enable-background:new    ;}
	.st2{fill:#FCFAFA;}
</style>
<g>
	<path class="st0" d="M17.9,1.5l15,26h-30L17.9,1.5z"/>
	<path class="st1" d="M29.8,1.5l15,26h-30L29.8,1.5z"/>
	<g>
		<path class="st2" d="M65.2,15c0,4.6-3.6,7.6-9.1,7.6h-2.9v4.9h-6.8V7.4h9.7C61.7,7.4,65.2,10.4,65.2,15z M58.4,15
			c0-1.5-0.9-2.3-2.8-2.3h-2.5v4.7h2.5C57.5,17.4,58.4,16.5,58.4,15z"/>
		<path class="st2" d="M76,22.5h-1.8v5h-6.8V7.4h9.7c5.6,0,9.1,2.9,9.1,7.6c0,2.9-1.4,5.1-3.8,6.3l4.2,6.2h-7.2L76,22.5z M76.7,12.7
			h-2.5v4.7h2.5c1.9,0,2.8-0.9,2.8-2.4S78.5,12.7,76.7,12.7z"/>
		<path class="st2" d="M88.8,7.4h9.9c6.7,0,11.3,3.8,11.3,10s-4.6,10-11.3,10h-9.9V7.4z M98.4,22.2c2.8,0,4.8-1.7,4.8-4.8
			s-1.9-4.8-4.8-4.8h-2.8v9.5H98.4z"/>
	</g>
</g>
</svg>
